# This file uses centimeters as units for non-parametric coordinates.

mtllib MortarHead.mtl
g default
v -5.241943 -10.413490 2.890184
v -3.026438 -10.413490 5.105688
v 0.000000 -10.413490 5.916624
v 3.026440 -10.413490 5.105690
v 5.241946 -10.413490 2.890184
v -5.241943 -5.905514 2.890184
v -3.026438 -5.905514 5.105688
v 0.000000 -5.905514 5.916624
v 3.026440 -5.905514 5.105690
v 5.241946 -5.905514 2.890184
v -6.052087 -10.413490 -0.000000
v -6.052087 -5.905514 0.000001
v 6.052085 -10.413490 -0.000001
v 6.052085 -5.905514 -0.000001
v -12.106454 -6.059889 4.465051
v 10.325624 -6.059891 6.025422
v -12.106451 1.477821 4.465052
v 10.325624 5.482010 6.025422
v -0.609015 -6.059891 7.522414
v -0.609015 5.482010 7.522413
v 8.563885 -6.059891 7.522412
v 8.563884 5.482010 7.522411
v 0.348879 -3.890774 5.017805
v 14.246607 -3.890774 5.017804
v 6.281208 8.799587 5.017808
v 14.246607 8.799587 5.017804
v 24.611595 1.452896 2.228454
v 24.611591 8.799587 2.228451
v 1.155328 5.185753 2.957462
v 14.333756 5.185753 2.957466
v 4.027194 10.413490 2.957461
v 9.196479 10.413490 2.957461
v -0.609015 5.482010 -0.000003
v 0.348878 -3.890774 0.000002
v 14.246602 -3.890774 -0.000001
v -0.609015 -6.059891 -0.000003
v 14.246602 8.799587 -0.000001
v 6.281207 8.799587 -0.000000
v 4.027192 10.413490 0.000001
v -12.106453 -6.059891 -0.000001
v -12.106453 1.477821 -0.000001
v 10.325624 -6.059891 -0.000001
v 10.325624 5.482010 -0.000001
v 24.611599 1.452896 0.000000
v 24.611599 8.799587 0.000000
v 9.196477 10.413490 -0.000000
v 14.333755 5.185753 -0.000001
v 1.155328 5.185753 0.000000
v -5.241946 -10.413490 -2.890181
v -3.026439 -10.413490 -5.105693
v -3.026439 -5.905514 -5.105693
v -5.241946 -5.905514 -2.890181
v 0.000001 -10.413490 -5.916620
v 0.000001 -5.905514 -5.916620
v 3.026441 -10.413490 -5.105689
v 3.026441 -5.905514 -5.105689
v 5.241945 -10.413490 -2.890181
v 5.241945 -5.905514 -2.890181
v -12.106460 -6.059889 -4.465044
v -0.609015 -6.059891 -7.522416
v -12.106459 1.477821 -4.465042
v -0.609016 5.482010 -7.522414
v 10.325624 -6.059891 -6.025424
v 10.325624 5.482010 -6.025424
v 8.563885 -6.059891 -7.522410
v 8.563885 5.482010 -7.522411
v 0.348874 -3.890774 -5.017807
v 14.246603 -3.890774 -5.017803
v 6.281207 8.799587 -5.017806
v 14.246603 8.799587 -5.017803
v 24.611599 1.452896 -2.228450
v 24.611599 8.799587 -2.228450
v 4.027194 10.413490 -2.957462
v 9.196478 10.413490 -2.957464
v 1.155329 5.185753 -2.957461
v 14.333751 5.185753 -2.957461
vt 0.141715 0.696803
vt 0.141715 0.730833
vt 0.092754 0.730832
vt 0.092754 0.696803
vt 0.141715 0.764862
vt 0.092754 0.764862
vt 0.141714 0.798891
vt 0.092754 0.798891
vt 0.141714 0.832921
vt 0.092753 0.832921
vt 0.141714 0.865521
vt 0.092753 0.865521
vt 0.092754 0.664203
vt 0.141715 0.664203
vt 0.595341 0.061641
vt 0.595321 0.013146
vt 0.720194 0.013095
vt 0.720227 0.094795
vt 0.534142 0.061666
vt 0.401926 0.094926
vt 0.401892 0.013226
vt 0.534122 0.013172
vt 0.595394 0.190853
vt 0.490706 0.190897
vt 0.595472 0.381030
vt 0.490784 0.381073
vt 0.490757 0.315632
vt 0.595445 0.315588
vt 0.283159 0.078717
vt 0.283132 0.013275
vt 0.595435 0.290480
vt 0.490747 0.290523
vt 0.422313 0.777044
vt 0.422318 0.626102
vt 0.476816 0.626104
vt 0.476811 0.777046
vt 0.476825 0.327752
vt 0.422327 0.327751
vt 0.422330 0.241239
vt 0.476828 0.241240
vt 0.714044 0.557495
vt 0.563102 0.557490
vt 0.563105 0.440328
vt 0.649617 0.440331
vt 0.422322 0.499448
vt 0.422324 0.440324
vt 0.446527 0.440325
vt 0.446525 0.499449
vt 0.188927 0.060903
vt 0.188927 0.093024
vt 0.132784 0.093024
vt 0.132784 0.060903
vt 0.101593 0.004125
vt 0.244723 0.004125
vt 0.268532 0.093024
vt 0.268532 0.060903
vt 0.838981 0.078487
vt 0.838954 0.013046
vt 0.476832 0.107531
vt 0.422334 0.107530
vt 0.068003 0.060903
vt 0.068003 0.093024
vt 0.302300 0.094967
vt 0.819853 0.094754
vt 0.141715 0.696803
vt 0.092754 0.696803
vt 0.092754 0.730832
vt 0.141715 0.730833
vt 0.092754 0.764862
vt 0.141715 0.764862
vt 0.092754 0.798891
vt 0.141714 0.798891
vt 0.092753 0.832921
vt 0.141714 0.832921
vt 0.141714 0.865521
vt 0.092753 0.865521
vt 0.141715 0.664203
vt 0.092754 0.664203
vt 0.595341 0.061641
vt 0.720227 0.094795
vt 0.720194 0.013095
vt 0.595321 0.013146
vt 0.534142 0.061666
vt 0.534122 0.013172
vt 0.401892 0.013226
vt 0.401926 0.094926
vt 0.595394 0.190853
vt 0.490706 0.190897
vt 0.595472 0.381030
vt 0.595445 0.315588
vt 0.490757 0.315632
vt 0.490784 0.381073
vt 0.283159 0.078717
vt 0.283132 0.013275
vt 0.595435 0.290480
vt 0.490747 0.290523
vt 0.422313 0.777044
vt 0.476811 0.777046
vt 0.476816 0.626104
vt 0.422318 0.626102
vt 0.476825 0.327752
vt 0.476828 0.241240
vt 0.422330 0.241239
vt 0.422327 0.327751
vt 0.714044 0.557495
vt 0.649617 0.440331
vt 0.563105 0.440328
vt 0.563102 0.557490
vt 0.422322 0.499448
vt 0.446525 0.499449
vt 0.446527 0.440325
vt 0.422324 0.440324
vt 0.188927 0.060903
vt 0.132784 0.060903
vt 0.132784 0.093024
vt 0.188927 0.093024
vt 0.101593 0.004125
vt 0.244723 0.004125
vt 0.268532 0.093024
vt 0.268532 0.060903
vt 0.838981 0.078487
vt 0.838954 0.013046
vt 0.476832 0.107531
vt 0.422334 0.107530
vt 0.068003 0.060903
vt 0.068003 0.093024
vt 0.302300 0.094967
vt 0.819853 0.094754
vn -0.707107 0.000000 0.707107
vn -0.707107 0.000000 0.707107
vn -0.707107 0.000000 0.707107
vn -0.707107 0.000000 0.707107
vn -0.707107 0.000000 0.707107
vn -0.707107 0.000000 0.707107
vn -0.258819 0.000000 0.965926
vn -0.258819 0.000000 0.965926
vn -0.258819 0.000000 0.965926
vn -0.258819 0.000000 0.965926
vn -0.258819 0.000000 0.965926
vn -0.258819 0.000000 0.965926
vn 0.258819 0.000000 0.965926
vn 0.258819 0.000000 0.965926
vn 0.258819 0.000000 0.965926
vn 0.258819 0.000000 0.965926
vn 0.258819 0.000000 0.965926
vn 0.258819 0.000000 0.965926
vn 0.707107 0.000000 0.707106
vn 0.707107 0.000000 0.707106
vn 0.707107 0.000000 0.707106
vn 0.707107 0.000000 0.707106
vn 0.707107 0.000000 0.707107
vn 0.707107 0.000000 0.707107
vn 0.962887 0.000000 0.269905
vn 0.962887 0.000000 0.269905
vn 0.962887 0.000000 0.269905
vn 0.962887 0.000000 0.269905
vn 0.962887 0.000000 0.269905
vn 0.962887 0.000000 0.269905
vn -0.962887 0.000000 0.269905
vn -0.962887 0.000000 0.269905
vn -0.962887 0.000000 0.269905
vn -0.962887 -0.000001 0.269904
vn -0.962887 -0.000001 0.269904
vn -0.962887 -0.000001 0.269904
vn 0.000000 -1.000000 0.000000
vn 0.000000 -1.000000 0.000000
vn 0.000000 -1.000000 0.000000
vn -0.000000 -1.000000 0.000000
vn -0.000000 -1.000000 0.000000
vn -0.000000 -1.000000 0.000000
vn -0.328893 0.944367 0.000000
vn -0.328893 0.944367 0.000000
vn -0.328893 0.944367 0.000000
vn -0.328893 0.944367 0.000000
vn -0.328893 0.944367 0.000000
vn -0.328893 0.944367 0.000000
vn -0.256987 0.000000 0.966415
vn -0.256987 0.000000 0.966415
vn -0.256987 0.000000 0.966415
vn -0.256986 0.000000 0.966415
vn -0.256986 0.000000 0.966415
vn -0.256986 0.000000 0.966415
vn 1.000000 0.000000 0.000000
vn 1.000000 0.000000 0.000000
vn 1.000000 0.000000 0.000000
vn 1.000000 0.000000 0.000000
vn 1.000000 0.000000 0.000000
vn 1.000000 0.000000 0.000000
vn 0.000000 1.000000 0.000000
vn 0.000000 1.000000 0.000000
vn 0.000000 1.000000 0.000000
vn 0.000000 1.000000 0.000000
vn 0.000000 1.000000 0.000000
vn 0.000000 1.000000 0.000000
vn 0.000000 0.000000 1.000000
vn 0.000000 0.000000 1.000000
vn 0.000000 0.000000 1.000000
vn 0.000000 0.000000 1.000000
vn 0.000000 0.000000 1.000000
vn 0.000000 0.000000 1.000000
vn 0.647527 0.000000 0.762043
vn 0.647527 0.000000 0.762043
vn 0.647527 0.000000 0.762043
vn 0.647526 0.000000 0.762043
vn 0.647526 0.000000 0.762043
vn 0.647526 0.000000 0.762043
vn 0.000000 -1.000000 -0.000001
vn 0.000000 -1.000000 -0.000001
vn 0.000000 -1.000000 -0.000001
vn -0.000000 -1.000000 0.000000
vn -0.000000 -1.000000 0.000000
vn -0.000000 -1.000000 0.000000
vn 0.000000 1.000000 0.000000
vn 0.000000 1.000000 0.000000
vn 0.000000 1.000000 0.000000
vn 0.000000 1.000000 0.000000
vn 0.000000 1.000000 0.000000
vn 0.000000 1.000000 0.000000
vn 0.000000 0.000000 1.000000
vn 0.000000 0.000000 1.000000
vn 0.000000 0.000000 1.000000
vn 0.000000 0.000000 1.000000
vn 0.000000 0.000000 1.000000
vn 0.000000 0.000000 1.000000
vn 1.000000 0.000000 0.000000
vn 1.000000 0.000000 0.000000
vn 1.000000 0.000000 0.000000
vn 1.000000 0.000000 -0.000001
vn 1.000000 0.000000 -0.000001
vn 1.000000 0.000000 -0.000001
vn 0.458236 -0.888830 -0.000001
vn 0.458236 -0.888830 -0.000001
vn 0.458236 -0.888830 -0.000001
vn 0.458236 -0.888831 -0.000001
vn 0.458236 -0.888830 -0.000001
vn 0.458236 -0.888830 -0.000001
vn 0.259868 0.000000 0.965644
vn 0.259868 0.000000 0.965644
vn 0.259868 0.000000 0.965644
vn 0.259868 0.000000 0.965644
vn 0.259868 0.000000 0.965644
vn 0.259868 0.000000 0.965644
vn 0.000000 1.000000 0.000000
vn 0.000000 1.000000 0.000000
vn 0.000000 1.000000 0.000000
vn 0.000000 1.000000 0.000000
vn 0.000000 1.000000 0.000000
vn 0.000000 1.000000 0.000000
vn 0.000000 0.000000 1.000000
vn 0.000000 0.000000 1.000000
vn 0.000000 0.000000 1.000000
vn 0.000000 0.000000 1.000000
vn 0.000000 0.000000 1.000000
vn 0.000000 0.000000 1.000000
vn 0.713251 0.700909 0.000000
vn 0.713251 0.700909 0.000000
vn 0.713251 0.700909 0.000000
vn 0.713251 0.700909 0.000000
vn 0.713251 0.700909 0.000000
vn 0.713251 0.700909 0.000000
vn -1.000000 0.000000 0.000000
vn -1.000000 0.000000 0.000000
vn -1.000000 0.000000 0.000000
vn -1.000000 0.000000 -0.000000
vn -1.000000 0.000000 -0.000000
vn -1.000000 0.000000 -0.000000
vn 0.000000 -1.000000 0.000000
vn 0.000000 -1.000000 0.000000
vn 0.000000 -1.000000 0.000000
vn 0.000000 -1.000000 0.000000
vn 0.000000 -1.000000 0.000000
vn 0.000000 -1.000000 0.000000
vn -0.905905 0.423481 0.000000
vn -0.905905 0.423481 0.000000
vn -0.905905 0.423481 0.000000
vn -0.905905 0.423481 0.000000
vn -0.905905 0.423481 0.000000
vn -0.905905 0.423481 0.000000
vn 0.000000 1.000000 0.000000
vn 0.000000 1.000000 0.000000
vn 0.000000 1.000000 0.000000
vn 0.000000 1.000000 0.000000
vn 0.000000 1.000000 0.000000
vn 0.000000 1.000000 0.000000
vn -0.876456 0.481482 0.000000
vn -0.876456 0.481482 0.000000
vn -0.876456 0.481482 0.000000
vn -0.876456 0.481482 0.000000
vn -0.876456 0.481482 0.000000
vn -0.876456 0.481482 0.000000
vn 0.000000 1.000000 -0.000004
vn 0.000000 1.000000 -0.000004
vn 0.000000 1.000000 -0.000004
vn 0.000000 -1.000000 0.000000
vn 0.000000 -1.000000 0.000000
vn 0.000000 -1.000000 0.000000
vn -0.707107 0.000000 -0.707107
vn -0.707107 0.000000 -0.707107
vn -0.707107 0.000000 -0.707107
vn -0.707107 0.000000 -0.707107
vn -0.707107 0.000000 -0.707107
vn -0.707107 0.000000 -0.707107
vn -0.258819 0.000000 -0.965926
vn -0.258819 0.000000 -0.965926
vn -0.258819 0.000000 -0.965926
vn -0.258819 0.000000 -0.965926
vn -0.258819 0.000000 -0.965926
vn -0.258819 0.000000 -0.965926
vn 0.258819 0.000000 -0.965926
vn 0.258819 0.000000 -0.965926
vn 0.258819 0.000000 -0.965926
vn 0.258819 0.000000 -0.965926
vn 0.258819 0.000000 -0.965926
vn 0.258819 0.000000 -0.965926
vn 0.707107 0.000000 -0.707107
vn 0.707107 0.000000 -0.707107
vn 0.707107 0.000000 -0.707106
vn 0.707107 0.000000 -0.707106
vn 0.707107 0.000000 -0.707106
vn 0.707107 0.000000 -0.707106
vn 0.962887 0.000000 -0.269905
vn 0.962887 0.000000 -0.269905
vn 0.962887 0.000000 -0.269905
vn 0.962887 0.000000 -0.269905
vn 0.962887 0.000000 -0.269905
vn 0.962887 0.000000 -0.269905
vn -0.962887 -0.000001 -0.269904
vn -0.962887 -0.000001 -0.269904
vn -0.962887 -0.000001 -0.269904
vn -0.962887 0.000000 -0.269905
vn -0.962887 0.000000 -0.269905
vn -0.962887 0.000000 -0.269905
vn -0.000000 -1.000000 0.000000
vn -0.000000 -1.000000 0.000000
vn -0.000000 -1.000000 0.000000
vn 0.000000 -1.000000 0.000000
vn 0.000000 -1.000000 0.000000
vn 0.000000 -1.000000 0.000000
vn -0.328893 0.944367 0.000000
vn -0.328893 0.944367 0.000000
vn -0.328893 0.944367 0.000000
vn -0.328893 0.944367 0.000000
vn -0.328893 0.944367 0.000000
vn -0.328893 0.944367 0.000000
vn -0.256986 0.000000 -0.966415
vn -0.256986 0.000000 -0.966415
vn -0.256986 0.000000 -0.966415
vn -0.256987 0.000000 -0.966415
vn -0.256987 0.000000 -0.966415
vn -0.256987 0.000000 -0.966415
vn 1.000000 0.000000 0.000000
vn 1.000000 0.000000 0.000000
vn 1.000000 0.000000 0.000000
vn 1.000000 0.000000 0.000000
vn 1.000000 0.000000 0.000000
vn 1.000000 0.000000 0.000000
vn 0.000000 1.000000 0.000000
vn 0.000000 1.000000 0.000000
vn 0.000000 1.000000 0.000000
vn 0.000000 1.000000 0.000000
vn 0.000000 1.000000 0.000000
vn 0.000000 1.000000 0.000000
vn 0.000000 0.000000 -1.000000
vn 0.000000 0.000000 -1.000000
vn 0.000000 0.000000 -1.000000
vn 0.000000 0.000000 -1.000000
vn 0.000000 0.000000 -1.000000
vn 0.000000 0.000000 -1.000000
vn 0.647526 0.000000 -0.762043
vn 0.647526 0.000000 -0.762043
vn 0.647526 0.000000 -0.762043
vn 0.647527 0.000000 -0.762043
vn 0.647527 0.000000 -0.762043
vn 0.647527 0.000000 -0.762043
vn -0.000000 -1.000000 0.000000
vn -0.000000 -1.000000 0.000000
vn -0.000000 -1.000000 0.000000
vn 0.000000 -1.000000 0.000001
vn 0.000000 -1.000000 0.000001
vn 0.000000 -1.000000 0.000001
vn 0.000000 1.000000 0.000000
vn 0.000000 1.000000 0.000000
vn 0.000000 1.000000 0.000000
vn 0.000000 1.000000 0.000000
vn 0.000000 1.000000 0.000000
vn 0.000000 1.000000 0.000000
vn 0.000000 0.000000 -1.000000
vn 0.000000 0.000000 -1.000000
vn 0.000000 0.000000 -1.000000
vn 0.000000 0.000000 -1.000000
vn 0.000000 0.000000 -1.000000
vn 0.000000 0.000000 -1.000000
vn 1.000000 0.000000 0.000001
vn 1.000000 0.000000 0.000001
vn 1.000000 0.000000 0.000001
vn 1.000000 0.000000 0.000000
vn 1.000000 0.000000 0.000000
vn 1.000000 0.000000 0.000000
vn 0.458236 -0.888831 0.000001
vn 0.458236 -0.888830 0.000001
vn 0.458236 -0.888831 0.000001
vn 0.458236 -0.888830 0.000001
vn 0.458236 -0.888830 0.000001
vn 0.458236 -0.888830 0.000001
vn 0.259868 0.000000 -0.965644
vn 0.259868 0.000000 -0.965644
vn 0.259868 0.000000 -0.965644
vn 0.259868 0.000000 -0.965644
vn 0.259868 0.000000 -0.965644
vn 0.259868 0.000000 -0.965644
vn 0.000000 1.000000 0.000000
vn 0.000000 1.000000 0.000000
vn 0.000000 1.000000 0.000000
vn 0.000000 1.000000 0.000000
vn 0.000000 1.000000 0.000000
vn 0.000000 1.000000 0.000000
vn 0.000000 0.000000 -1.000000
vn 0.000000 0.000000 -1.000000
vn 0.000000 0.000000 -1.000000
vn 0.000000 0.000000 -1.000000
vn 0.000000 0.000000 -1.000000
vn 0.000000 0.000000 -1.000000
vn 0.713251 0.700909 0.000000
vn 0.713251 0.700909 0.000000
vn 0.713251 0.700909 0.000000
vn 0.713251 0.700909 0.000000
vn 0.713251 0.700909 0.000000
vn 0.713251 0.700909 0.000000
vn -1.000000 0.000000 0.000000
vn -1.000000 0.000000 0.000000
vn -1.000000 0.000000 0.000000
vn -1.000000 0.000000 0.000000
vn -1.000000 0.000000 0.000000
vn -1.000000 0.000000 0.000000
vn 0.000000 -1.000000 0.000000
vn 0.000000 -1.000000 0.000000
vn 0.000000 -1.000000 0.000000
vn 0.000000 -1.000000 0.000000
vn 0.000000 -1.000000 0.000000
vn 0.000000 -1.000000 0.000000
vn -0.905905 0.423481 0.000000
vn -0.905905 0.423481 0.000000
vn -0.905905 0.423481 0.000000
vn -0.905905 0.423481 0.000000
vn -0.905905 0.423481 0.000000
vn -0.905905 0.423481 0.000000
vn 0.000000 1.000000 0.000000
vn 0.000000 1.000000 0.000000
vn 0.000000 1.000000 0.000000
vn 0.000000 1.000000 0.000000
vn 0.000000 1.000000 0.000000
vn 0.000000 1.000000 0.000000
vn -0.876456 0.481482 0.000000
vn -0.876456 0.481482 0.000000
vn -0.876456 0.481482 0.000000
vn -0.876456 0.481482 0.000000
vn -0.876456 0.481482 0.000000
vn -0.876456 0.481482 0.000000
vn 0.000000 1.000000 0.000002
vn 0.000000 1.000000 0.000002
vn 0.000000 1.000000 0.000002
vn 0.000000 -1.000000 0.000001
vn 0.000000 -1.000000 0.000001
vn 0.000000 -1.000000 0.000001
s off
g sci_fi_turret_4:sci_fi_turret_4
usemtl lambert3SG
f 1/1/1 2/2/2 7/3/3
f 7/3/4 6/4/5 1/1/6
f 2/2/7 3/5/8 8/6/9
f 8/6/10 7/3/11 2/2/12
f 3/5/13 4/7/14 9/8/15
f 9/8/16 8/6/17 3/5/18
f 4/7/19 5/9/20 10/10/21
f 10/10/22 9/8/23 4/7/24
f 13/11/25 14/12/26 10/10/27
f 10/10/28 5/9/29 13/11/30
f 1/1/31 6/4/32 12/13/33
f 12/13/34 11/14/35 1/1/36
f 15/15/37 40/16/38 36/17/39
f 36/17/40 19/18/41 15/15/42
f 17/19/43 20/20/44 33/21/45
f 33/21/46 41/22/47 17/19/48
f 19/23/49 20/24/50 17/19/51
f 17/19/52 15/15/53 19/23/54
f 42/25/55 43/26/56 18/27/57
f 18/27/58 16/28/59 42/25/60
f 18/29/61 43/30/62 33/21/63
f 33/21/64 20/20/65 18/29/66
f 21/31/67 22/32/68 20/24/69
f 20/24/70 19/23/71 21/31/72
f 21/31/73 16/28/74 18/27/75
f 18/27/76 22/32/77 21/31/78
f 34/33/79 35/34/80 24/35/81
f 24/35/82 23/36/83 34/33/84
f 26/37/85 37/38/86 38/39/87
f 38/39/88 25/40/89 26/37/90
f 23/41/91 24/42/92 26/43/93
f 26/43/94 25/44/95 23/41/96
f 44/45/97 45/46/98 28/47/99
f 28/47/100 27/48/101 44/45/102
f 35/34/103 44/45/104 27/48/105
f 27/48/106 24/35/107 35/34/108
f 26/43/109 24/42/110 27/48/111
f 27/48/112 28/47/113 26/43/114
f 32/49/115 46/50/116 39/51/117
f 39/51/118 31/52/119 32/49/120
f 29/53/121 30/54/122 32/49/123
f 32/49/124 31/52/125 29/53/126
f 47/55/127 46/50/128 32/49/129
f 32/49/130 30/56/131 47/55/132
f 15/15/133 17/19/134 41/22/135
f 41/22/136 40/16/137 15/15/138
f 16/57/139 19/18/140 36/17/141
f 36/17/142 42/58/143 16/57/144
f 23/59/145 25/40/146 38/39/147
f 38/39/148 34/60/149 23/59/150
f 37/38/151 26/37/152 28/47/153
f 28/47/154 45/46/155 37/38/156
f 29/61/157 31/52/158 39/51/159
f 39/51/160 48/62/161 29/61/162
f 20/20/163 22/63/164 18/29/165
f 16/57/166 21/64/167 19/18/168
f 49/65/169 52/66/170 51/67/171
f 51/67/172 50/68/173 49/65/174
f 50/68/175 51/67/176 54/69/177
f 54/69/178 53/70/179 50/68/180
f 53/70/181 54/69/182 56/71/183
f 56/71/184 55/72/185 53/70/186
f 55/72/187 56/71/188 58/73/189
f 58/73/190 57/74/191 55/72/192
f 13/75/193 57/74/194 58/73/195
f 58/73/196 14/76/197 13/75/198
f 49/65/199 11/77/200 12/78/201
f 12/78/202 52/66/203 49/65/204
f 59/79/205 60/80/206 36/81/207
f 36/81/208 40/82/209 59/79/210
f 61/83/211 41/84/212 33/85/213
f 33/85/214 62/86/215 61/83/216
f 60/87/217 59/79/218 61/83/219
f 61/83/220 62/88/221 60/87/222
f 42/89/223 63/90/224 64/91/225
f 64/91/226 43/92/227 42/89/228
f 64/93/229 62/86/230 33/85/231
f 33/85/232 43/94/233 64/93/234
f 65/95/235 60/87/236 62/88/237
f 62/88/238 66/96/239 65/95/240
f 65/95/241 66/96/242 64/91/243
f 64/91/244 63/90/245 65/95/246
f 34/97/247 67/98/248 68/99/249
f 68/99/250 35/100/251 34/97/252
f 70/101/253 69/102/254 38/103/255
f 38/103/256 37/104/257 70/101/258
f 67/105/259 69/106/260 70/107/261
f 70/107/262 68/108/263 67/105/264
f 44/109/265 71/110/266 72/111/267
f 72/111/268 45/112/269 44/109/270
f 35/100/271 68/99/272 71/110/273
f 71/110/274 44/109/275 35/100/276
f 70/107/277 72/111/278 71/110/279
f 71/110/280 68/108/281 70/107/282
f 74/113/283 73/114/284 39/115/285
f 39/115/286 46/116/287 74/113/288
f 75/117/289 73/114/290 74/113/291
f 74/113/292 76/118/293 75/117/294
f 47/119/295 76/120/296 74/113/297
f 74/113/298 46/116/299 47/119/300
f 59/79/301 40/82/302 41/84/303
f 41/84/304 61/83/305 59/79/306
f 63/121/307 42/122/308 36/81/309
f 36/81/310 60/80/311 63/121/312
f 67/123/313 34/124/314 38/103/315
f 38/103/316 69/102/317 67/123/318
f 37/104/319 45/112/320 72/111/321
f 72/111/322 70/101/323 37/104/324
f 75/125/325 48/126/326 39/115/327
f 39/115/328 73/114/329 75/125/330
f 62/86/331 64/93/332 66/127/333
f 63/121/334 60/80/335 65/128/336
