# This file uses centimeters as units for non-parametric coordinates.

mtllib cargo3.mtl
g default
v -4.672019 0.000000 0.000000
v 4.672019 0.000000 0.000000
v 4.767428 0.000000 0.000000
v 0.000000 0.000000 -11.672483
v 4.871994 10.304550 -11.810341
v 4.672019 0.000000 -11.672483
v 4.672019 0.000000 11.672483
v 4.767429 10.393585 11.702264
v -4.767428 10.393585 -11.702264
v -4.767428 10.393585 -11.810341
v -4.871993 10.304550 -11.810341
v -4.871993 0.100970 -11.810341
v -4.871993 0.100970 -11.734906
v -4.871993 0.100970 0.000000
v -4.672019 0.000000 -11.672483
v -4.871993 10.304550 11.810341
v -4.871993 0.100970 11.734906
v -4.767428 0.000000 11.810341
v -4.871993 10.304550 11.734906
v -4.871993 10.304550 0.000000
v -4.767428 10.393585 0.000000
v -4.871993 10.304550 -11.734906
v -4.871993 0.100970 11.810341
v -4.767428 10.393585 11.810341
v -4.767428 10.393585 11.702264
v -4.672018 10.393585 11.672483
v 0.000000 10.393585 0.000000
v -4.672018 10.393585 0.000000
v 4.672019 10.393585 11.672483
v 4.871994 10.304550 11.810341
v 0.000000 0.000000 11.672483
v 0.000000 10.393585 11.672483
v 4.767429 10.393585 0.000000
v 4.672019 10.393585 -11.672483
v 4.767429 10.393585 -11.702264
v 4.672019 10.393585 0.000000
v 0.000000 10.393585 -11.672483
v -4.672018 10.393585 -11.672483
v -4.672019 0.000000 11.672483
v -4.767428 0.000000 0.000000
v -4.767428 0.000000 -11.810341
vt 0.994629 0.558105
vt 0.994629 0.553711
vt 0.500488 0.554443
vt 0.500488 0.356445
vt 0.500488 0.158203
vt 0.994629 0.158203
vt 0.994629 0.154785
vt 0.499756 0.999101
vt 0.988770 0.993401
vt 0.985840 0.999201
vt 0.499756 0.563721
vt 0.984863 0.560791
vt 0.000899 0.565918
vt 0.010894 0.993001
vt 0.000899 0.997002
vt 0.013397 0.999201
vt 0.010894 0.993401
vt 0.013198 0.569824
vt 0.013198 0.993401
vt 0.007896 0.997201
vt 0.013198 0.993401
vt 0.013397 0.999201
vt 0.013198 0.993401
vt 0.007896 0.997201
vt 0.007896 0.997201
vt 0.010894 0.570312
vt 0.013198 0.569824
vt 0.010894 0.570312
vt 0.007896 0.565674
vt 0.013198 0.569824
vt 0.010894 0.570312
vt 0.013397 0.563721
vt 0.499756 0.569824
vt 0.013198 0.569824
vt 0.499756 0.569824
vt 0.013198 0.993401
vt 0.013198 0.569824
vt 0.013198 0.993401
vt 0.499756 0.569824
vt 0.499756 0.993302
vt 0.000899 0.565918
vt 0.007896 0.997201
vt 0.000899 0.997002
vt 0.007896 0.997201
vt 0.000899 0.565918
vt 0.007896 0.565674
vt 0.010894 0.570312
vt 0.007896 0.997201
vt 0.007896 0.565674
vt 0.988770 0.570312
vt 0.991699 0.997201
vt 0.988770 0.993001
vt 0.991699 0.997201
vt 0.988770 0.570312
vt 0.991699 0.565674
vt 0.986328 0.569824
vt 0.991699 0.565674
vt 0.988770 0.570312
vt 0.499756 0.569824
vt 0.985840 0.563721
vt 0.986328 0.569824
vt 0.986328 0.993401
vt 0.499756 0.569824
vt 0.986328 0.569824
vt 0.499756 0.569824
vt 0.986328 0.993401
vt 0.499756 0.993302
vt 0.986328 0.993401
vt 0.499756 0.999101
vt 0.499756 0.993302
vt 0.499756 0.999101
vt 0.013198 0.993401
vt 0.499756 0.993302
vt 0.013198 0.993401
vt 0.499756 0.999101
vt 0.013397 0.999201
vt 0.986328 0.569824
vt 0.988770 0.570312
vt 0.986328 0.569824
vt 0.986328 0.993401
vt 0.991699 0.997201
vt 0.986328 0.993401
vt 0.986328 0.993401
vt 0.991699 0.997201
vt 0.985840 0.999201
vt 0.499756 0.999101
vt 0.986328 0.993401
vt 0.985840 0.999201
vt 0.003099 0.048340
vt 0.003099 0.558838
vt -0.001599 0.558838
vt 0.500488 0.158203
vt 0.499268 0.154785
vt 0.494873 0.154785
vt 0.994629 0.158203
vt 0.499268 0.154785
vt 0.500488 0.158203
vt 0.500488 0.158203
vt 0.994629 0.356445
vt 0.994629 0.158203
vt 0.994629 0.356445
vt 0.500488 0.158203
vt 0.500488 0.356445
vt 0.500488 0.554443
vt 0.994629 0.356445
vt 0.500488 0.356445
vt 0.994629 0.356445
vt 0.500488 0.554443
vt 0.994629 0.553955
vt 0.499268 0.558105
vt 0.500488 0.554443
vt 0.994629 0.558105
vt 0.499268 0.154785
vt 0.994629 0.158203
vt 0.994629 0.154785
vt 0.494873 0.558105
vt 0.500488 0.554443
vt 0.998535 0.997401
vt 0.232788 0.558838
vt 0.462402 0.048340
vt 0.462402 0.558838
vt 0.232788 0.048340
vt 0.500488 0.554443
vt 0.500488 0.356445
vt 0.500488 0.554443
vt 0.500488 0.356445
vt 0.500488 0.356445
vt 0.500488 0.356445
vt 0.500488 0.158203
vt 0.500488 0.158203
vt 0.500488 0.554443
vt 0.499268 0.558105
vt 0.494873 0.558105
vt 0.499268 0.558105
vt 0.994629 0.558105
vt 0.499268 0.558105
vt 0.500488 0.554443
vt 0.500488 0.554443
vt 0.994629 0.356445
vt 0.994629 0.356445
vt 0.500488 0.554443
vt 0.500488 0.356445
vt 0.500488 0.158203
vt 0.994629 0.356445
vt 0.500488 0.356445
vt 0.994629 0.356445
vt 0.500488 0.158203
vt 0.994629 0.158203
vt 0.499268 0.154785
vt 0.994629 0.158203
vt 0.500488 0.158203
vt 0.494873 0.154785
vt 0.499268 0.154785
vt 0.500488 0.158203
vt 0.994629 0.158203
vt 0.499268 0.154785
vt 0.994629 0.154785
vt 0.003099 0.048340
vt 0.232788 0.558838
vt 0.003099 0.558838
vt 0.232788 0.558838
vt 0.003099 0.048340
vt 0.232788 0.048340
vt 0.232788 0.048340
vt 0.462402 0.558838
vt 0.232788 0.558838
vt 0.462402 0.558838
vt 0.232788 0.048340
vt 0.462402 0.048340
vt 0.985840 0.563721
vt 0.499756 0.563721
vt 0.984863 0.560791
vt 0.499756 0.563721
vt 0.985840 0.563721
vt 0.499756 0.569824
vt 0.013397 0.563721
vt 0.499756 0.563721
vt 0.499756 0.569824
vt 0.499756 0.563721
vt 0.013397 0.563721
vt 0.014694 0.560791
vt 0.991699 0.565674
vt 0.998535 0.565918
vt 0.991699 0.997201
vn 0.247481 -0.968893 0.000000
vn 0.000000 -1.000000 0.000000
vn -0.268353 -0.815924 -0.512108
vn 0.000000 -1.000000 0.000000
vn -0.268353 -0.815924 -0.512108
vn 0.000000 -1.000000 0.000000
vn 0.340874 -0.829096 -0.443175
vn 0.000000 -1.000000 0.000000
vn -0.247481 -0.968893 0.000000
vn 0.000000 -1.000000 0.000000
vn 0.340874 -0.829096 -0.443175
vn 0.000000 -0.707107 -0.707107
vn 0.457111 0.889410 0.000000
vn 0.878248 0.478205 0.000000
vn 0.275583 0.961277 0.000000
vn 0.878248 0.478205 0.000000
vn 0.920501 -0.390741 0.000000
vn 0.920501 -0.390741 0.000000
vn -0.307759 -0.748583 0.587288
vn -0.086095 0.624209 0.776499
vn -0.187937 0.914353 0.358661
vn 0.920501 -0.390741 0.000000
vn 0.878248 0.478205 0.000000
vn 0.920501 -0.390741 0.000000
vn 0.920501 -0.390741 0.000000
vn 0.878248 0.478205 0.000000
vn 0.907831 0.419336 0.000000
vn 0.878248 0.478205 0.000000
vn 0.457111 0.889410 0.000000
vn 0.907831 0.419336 0.000000
vn 0.878248 0.478205 0.000000
vn 0.457111 0.889410 0.000000
vn 0.275583 0.961277 0.000000
vn -0.903431 0.259719 -0.341113
vn -0.920501 -0.390741 0.000000
vn -0.878248 0.478205 0.000000
vn 0.086095 0.624209 -0.776499
vn -0.878248 0.478205 0.000000
vn -0.275583 0.961277 0.000000
vn -0.878248 0.478205 0.000000
vn 0.086095 0.624209 -0.776499
vn -0.903431 0.259719 -0.341113
vn 0.086095 0.624209 -0.776499
vn -0.623411 -0.264630 -0.735751
vn -0.903431 0.259719 -0.341113
vn -0.920501 -0.390741 0.000000
vn -0.903431 0.259719 -0.341113
vn -0.623411 -0.264630 -0.735751
vn -0.191876 -0.825337 -0.531038
vn -0.920501 -0.390741 0.000000
vn -0.623411 -0.264630 -0.735751
vn -0.448055 -0.894006 0.000000
vn -0.920501 -0.390741 0.000000
vn -0.920501 -0.390741 0.000000
vn -0.920501 -0.390741 0.000000
vn -0.878248 0.478205 0.000000
vn -0.920501 -0.390741 0.000000
vn -0.878248 0.478205 0.000000
vn -0.920501 -0.390741 0.000000
vn -0.907831 0.419336 0.000000
vn 0.340874 -0.829096 -0.443175
vn 0.086095 0.624209 -0.776499
vn 0.170421 0.829093 -0.532505
vn 0.086095 0.624209 -0.776499
vn 0.340874 -0.829096 -0.443175
vn -0.191876 -0.825337 -0.531038
vn -0.623411 -0.264630 -0.735751
vn 0.086095 0.624209 -0.776499
vn -0.191876 -0.825337 -0.531038
vn -0.623411 -0.264630 0.735751
vn 0.086095 0.624209 0.776499
vn -0.903431 0.259719 0.341113
vn 0.086095 0.624209 0.776499
vn -0.623411 -0.264630 0.735751
vn -0.191876 -0.825337 0.531038
vn -0.920501 -0.390741 0.000000
vn -0.191876 -0.825337 0.531038
vn -0.623411 -0.264630 0.735751
vn -0.920501 -0.390741 0.000000
vn -0.448055 -0.894006 0.000000
vn -0.920501 -0.390741 0.000000
vn -0.878248 0.478205 0.000000
vn -0.920501 -0.390741 0.000000
vn -0.920501 -0.390741 0.000000
vn -0.920501 -0.390741 0.000000
vn -0.878248 0.478205 0.000000
vn -0.907831 0.419336 0.000000
vn -0.878248 0.478205 0.000000
vn -0.457111 0.889410 0.000000
vn -0.907831 0.419336 0.000000
vn -0.457111 0.889410 0.000000
vn -0.878248 0.478205 0.000000
vn -0.907831 0.419336 0.000000
vn -0.878248 0.478205 0.000000
vn -0.457111 0.889410 0.000000
vn -0.275583 0.961277 0.000000
vn -0.903431 0.259719 0.341113
vn -0.920501 -0.390741 0.000000
vn -0.623411 -0.264630 0.735751
vn -0.920501 -0.390741 0.000000
vn -0.903431 0.259719 0.341113
vn -0.878248 0.478205 0.000000
vn 0.086095 0.624209 0.776499
vn -0.878248 0.478205 0.000000
vn -0.903431 0.259719 0.341113
vn -0.878248 0.478205 0.000000
vn 0.086095 0.624209 0.776499
vn -0.275583 0.961277 0.000000
vn -0.457111 0.889410 0.000000
vn -0.878248 0.478205 0.000000
vn -0.275583 0.961277 0.000000
vn 0.340874 -0.829096 0.443175
vn 0.170421 0.829093 0.532505
vn 0.086095 0.624209 0.776499
vn 0.170421 0.829093 0.532505
vn -0.275583 0.961277 0.000000
vn 0.086095 0.624209 0.776499
vn 0.000000 1.000000 0.000000
vn -0.275583 0.961277 0.000000
vn 0.170421 0.829093 0.532505
vn 0.170421 0.829093 0.532505
vn 0.000000 1.000000 0.000000
vn 0.000000 1.000000 0.000000
vn 0.000000 1.000000 0.000000
vn 0.170421 0.829093 0.532505
vn 0.000000 0.554693 0.832055
vn -0.187937 0.914353 0.358661
vn 0.000000 1.000000 0.000000
vn 0.000000 0.554693 0.832055
vn 0.000000 1.000000 0.000000
vn -0.187937 0.914353 0.358661
vn 0.000000 1.000000 0.000000
vn 0.275583 0.961277 0.000000
vn 0.000000 1.000000 0.000000
vn -0.187937 0.914353 0.358661
vn 0.000000 1.000000 0.000000
vn 0.275583 0.961277 0.000000
vn 0.457111 0.889410 0.000000
vn -0.275583 0.961277 0.000000
vn 0.000000 1.000000 0.000000
vn -0.457111 0.889410 0.000000
vn -0.086095 0.624209 0.776499
vn 0.275583 0.961277 0.000000
vn -0.187937 0.914353 0.358661
vn -0.086095 0.624209 -0.776499
vn -0.268353 -0.815924 -0.512108
vn -0.187937 0.914353 -0.358661
vn 0.000000 0.554693 0.832055
vn -0.307759 -0.748583 0.587288
vn -0.187937 0.914353 0.358661
vn -0.307759 -0.748583 0.587288
vn 0.000000 0.554693 0.832055
vn 0.000000 -0.799996 0.600005
vn 0.170421 0.829093 0.532505
vn 0.000000 -0.799996 0.600005
vn 0.000000 0.554693 0.832055
vn 0.000000 -0.799996 0.600005
vn 0.170421 0.829093 0.532505
vn 0.340874 -0.829096 0.443175
vn 0.000000 -1.000000 0.000000
vn 0.247481 -0.968893 0.000000
vn -0.307759 -0.748583 0.587288
vn 0.000000 -0.799996 0.600005
vn 0.000000 -1.000000 0.000000
vn -0.307759 -0.748583 0.587288
vn 0.000000 -1.000000 0.000000
vn 0.000000 -0.799996 0.600005
vn 0.000000 -1.000000 0.000000
vn 0.000000 -0.799996 0.600005
vn 0.000000 -1.000000 0.000000
vn 0.000000 -1.000000 0.000000
vn 0.000000 -1.000000 0.000000
vn 0.000000 -0.799996 0.600005
vn 0.340874 -0.829096 0.443175
vn -0.247481 -0.968893 0.000000
vn 0.000000 -1.000000 0.000000
vn 0.340874 -0.829096 0.443175
vn -0.187937 0.914353 -0.358661
vn 0.275583 0.961277 0.000000
vn -0.086095 0.624209 -0.776499
vn 0.275583 0.961277 0.000000
vn 0.000000 1.000000 0.000000
vn 0.457111 0.889410 0.000000
vn 0.000000 1.000000 0.000000
vn 0.275583 0.961277 0.000000
vn -0.187937 0.914353 -0.358661
vn -0.187937 0.914353 -0.358661
vn 0.000000 1.000000 0.000000
vn 0.000000 1.000000 0.000000
vn 0.000000 1.000000 0.000000
vn -0.187937 0.914353 -0.358661
vn -0.000000 0.554693 -0.832055
vn 0.170421 0.829093 -0.532505
vn 0.000000 1.000000 0.000000
vn -0.000000 0.554693 -0.832055
vn 0.000000 1.000000 0.000000
vn 0.170421 0.829093 -0.532505
vn 0.000000 1.000000 0.000000
vn -0.275583 0.961277 0.000000
vn 0.000000 1.000000 0.000000
vn 0.170421 0.829093 -0.532505
vn 0.086095 0.624209 -0.776499
vn -0.275583 0.961277 0.000000
vn 0.170421 0.829093 -0.532505
vn 0.000000 1.000000 0.000000
vn -0.275583 0.961277 0.000000
vn -0.457111 0.889410 0.000000
vn -0.268353 -0.815924 -0.512108
vn -0.000000 0.554693 -0.832055
vn -0.187937 0.914353 -0.358661
vn -0.000000 0.554693 -0.832055
vn -0.268353 -0.815924 -0.512108
vn 0.000000 -0.707107 -0.707107
vn 0.000000 -0.707107 -0.707107
vn 0.170421 0.829093 -0.532505
vn -0.000000 0.554693 -0.832055
vn 0.170421 0.829093 -0.532505
vn 0.000000 -0.707107 -0.707107
vn 0.340874 -0.829096 -0.443175
vn -0.448055 -0.894006 0.000000
vn -0.247481 -0.968893 0.000000
vn 0.340874 -0.829096 0.443175
vn -0.247481 -0.968893 0.000000
vn -0.448055 -0.894006 0.000000
vn -0.920501 -0.390741 0.000000
vn -0.448055 -0.894006 0.000000
vn -0.247481 -0.968893 0.000000
vn -0.920501 -0.390741 0.000000
vn -0.247481 -0.968893 0.000000
vn -0.448055 -0.894006 0.000000
vn 0.340874 -0.829096 -0.443175
vn -0.191876 -0.825337 0.531038
vn 0.340874 -0.829096 0.443175
vn 0.086095 0.624209 0.776499
s off
g polySurface582 Cargo_container_01_Mesh
usemtl initialShadingGroup
f 3/1/1 2/2/2 6/3/3
f 4/4/4 6/3/5 2/2/6
f 15/5/7 1/6/8 40/7/9
f 1/6/10 15/5/11 4/4/12
f 33/8/13 5/9/14 35/10/15
f 5/9/16 3/11/17 6/12/18
f 7/13/19 30/14/20 29/15/21
f 3/11/22 30/14/23 7/13/24
f 3/11/25 5/9/26 30/14/27
f 5/9/28 33/8/29 30/14/30
f 30/14/31 33/8/32 8/16/33
f 11/17/34 13/18/35 22/19/36
f 10/20/37 22/21/38 9/22/39
f 22/23/40 10/24/41 11/17/42
f 10/25/43 12/26/44 11/17/45
f 13/27/46 11/17/47 12/28/48
f 41/29/49 13/30/50 12/31/51
f 41/32/52 14/33/53 13/34/54
f 14/35/55 22/36/56 13/37/57
f 22/38/58 14/39/59 20/40/60
f 15/41/61 10/42/62 38/43/63
f 10/44/64 15/45/65 41/46/66
f 12/47/67 10/48/68 41/49/69
f 23/50/70 24/51/71 16/52/72
f 24/53/73 23/54/74 18/55/75
f 17/56/76 18/57/77 23/58/78
f 14/59/79 18/60/80 17/61/81
f 19/62/82 14/63/83 17/64/84
f 14/65/85 19/66/86 20/67/87
f 19/68/88 21/69/89 20/70/90
f 21/71/91 22/72/92 20/73/93
f 22/74/94 21/75/95 9/76/96
f 16/52/97 17/77/98 23/78/99
f 17/79/100 16/52/101 19/80/102
f 24/81/103 19/82/104 16/52/105
f 19/83/106 24/84/107 25/85/108
f 21/86/109 19/87/110 25/88/111
f 39/89/112 26/90/113 24/91/114
f 26/92/115 25/93/116 24/94/117
f 28/95/118 25/96/119 26/97/120
f 26/98/121 27/99/122 28/100/123
f 27/101/124 26/102/125 32/103/126
f 29/104/127 27/105/128 32/106/129
f 27/107/130 29/108/131 36/109/132
f 8/110/133 36/109/134 29/111/135
f 36/109/136 8/110/137 33/112/138
f 25/113/139 28/114/140 21/115/141
f 30/116/142 8/110/143 29/117/144
f 5/9/145 6/12/146 34/118/147
f 32/119/148 7/120/149 29/121/150
f 7/120/151 32/119/152 31/122/153
f 26/90/154 31/122/155 32/119/156
f 31/122/157 26/90/158 39/89/159
f 2/2/160 3/1/161 7/123/162
f 31/124/163 2/2/164 7/125/165
f 2/2/166 31/126/167 4/4/168
f 31/127/169 1/6/170 4/4/171
f 1/6/172 31/128/173 39/129/174
f 40/7/175 1/6/176 39/130/177
f 34/131/178 35/132/179 5/133/180
f 35/134/181 36/109/182 33/135/183
f 36/109/184 35/136/185 34/137/186
f 34/138/187 27/139/188 36/109/189
f 27/140/190 34/141/191 37/142/192
f 38/143/193 27/144/194 37/145/195
f 27/146/196 38/147/197 28/148/198
f 9/149/199 28/150/200 38/151/201
f 10/152/202 9/153/203 38/154/204
f 28/155/205 9/156/206 21/157/207
f 6/158/208 37/159/209 34/160/210
f 37/161/211 6/162/212 4/163/213
f 4/164/214 38/165/215 37/166/216
f 38/167/217 4/168/218 15/169/219
f 18/170/220 40/171/221 39/172/222
f 40/173/223 18/174/224 14/175/225
f 41/176/226 40/177/227 14/178/228
f 40/179/229 41/180/230 15/181/231
f 18/182/232 39/183/233 24/184/234
