# This file uses centimeters as units for non-parametric coordinates.

mtllib MortarRight.mtl
g default
v 2.095582 -1.474171 -7.803467
v 6.385891 -1.474171 -7.803467
v 6.385891 3.135445 -7.803459
v 2.095582 3.135445 -7.803459
v 0.675709 -2.999718 9.606159
v 7.805763 -2.999718 9.606159
v 7.805763 4.660988 9.606159
v 0.675709 4.660988 9.606159
v 4.285793 -2.986206 -6.004471
v 8.576099 -2.986206 -6.004471
v 8.576099 4.260185 -6.004463
v 4.285793 4.260185 -6.004463
v 3.931150 -4.541683 6.047466
v 11.061201 -4.541683 6.047466
v 23.374893 -1.089233 9.169346
v 23.374893 2.363213 9.169346
v 22.394878 1.844723 2.358971
v 22.394878 -0.570740 2.358971
v 11.061201 5.815662 6.047466
v 3.931150 5.815662 6.047466
v -8.517019 -1.879166 7.676414
v -4.378674 -0.941826 -3.941307
v -4.381356 2.497406 -3.945305
v -8.514334 3.302361 7.680412
v 0.967560 -2.150200 7.913475
v 2.193899 -1.116035 -6.637047
v 2.196583 2.539227 -6.633049
v 0.964876 3.705780 7.909477
v -6.804507 2.545837 5.087177
v -6.804507 1.167229 6.984673
v -42.969772 0.902061 6.168587
v -42.969772 1.687752 5.087177
v -6.804507 -1.063412 6.259892
v -42.969772 -0.369209 5.755524
v -6.804507 -1.063412 3.914459
v -42.969772 -0.369209 4.418831
v -6.804507 1.167229 3.189682
v -42.969772 0.902061 4.005768
v 5.786280 0.907330 -7.654037
v 4.671691 2.441429 -7.654037
v 4.671691 2.441437 -12.133644
v 5.786280 0.907333 -12.133644
v 2.868250 1.855453 -7.654037
v 2.868250 1.855461 -12.133644
v 2.868251 -0.040794 -7.654045
v 2.868251 -0.040791 -12.133644
v 4.671691 -0.626770 -7.654045
v 4.671691 -0.626762 -12.133644
v 3.738971 6.198738 -0.531097
v 6.799424 6.198738 -0.531097
v 6.799424 6.342552 1.307014
v 3.738971 6.342552 1.307014
v 2.517174 3.633980 -0.399879
v 8.021221 3.633980 -0.399879
v 8.021221 3.777802 1.438225
v 2.517174 3.777802 1.438225
v 3.738971 5.832603 -3.949852
v 6.799424 5.832603 -3.949852
v 6.799424 5.976421 -2.111740
v 3.738971 5.976421 -2.111740
v 2.517174 3.267845 -3.818634
v 8.021221 3.267845 -3.818634
v 8.021221 3.411667 -1.980530
v 2.517174 3.411667 -1.980530
v -1.166044 -5.658733 -0.425964
v -3.851311 -6.342548 4.400284
v 4.982167 -6.342548 4.400284
v 4.982167 -5.658733 -0.425964
v 7.760714 -0.591862 -2.789024
v -3.643536 -0.591862 -2.789024
v 7.760714 -1.275677 4.400284
v -6.328804 -1.275677 4.400284
v 1.528190 0.979492 9.286090
v 2.133380 2.642242 9.286090
v 2.133381 2.642242 12.133644
v 1.528190 0.979492 12.133644
v 3.665777 3.526970 9.286090
v 3.665778 3.526970 12.133644
v 5.408354 3.219711 9.286090
v 5.408354 3.219711 12.133644
v 6.545741 1.864223 9.286090
v 6.545742 1.864223 12.133644
v 6.545741 0.094765 9.286090
v 6.545741 0.094765 12.133644
v 5.408354 -1.260719 9.286090
v 5.408354 -1.260719 12.133644
v 3.665777 -1.567982 9.286090
v 3.665777 -1.567986 12.133644
v 2.133380 -0.683250 9.286090
v 2.133381 -0.683250 12.133644
vt 0.703758 0.291743
vt 0.703850 0.341833
vt 0.750447 0.341833
vt 0.750355 0.291743
vt 0.688245 0.101908
vt 0.765684 0.101908
vt 0.799622 0.300097
vt 0.847713 0.115835
vt 0.843607 0.315477
vt 0.920812 0.141394
vt 0.606217 0.115835
vt 0.654308 0.300097
vt 0.832749 0.709751
vt 0.832741 0.662855
vt 0.754039 0.662854
vt 0.754039 0.709451
vt 0.968496 0.749282
vt 0.860825 0.672856
vt 0.921837 0.811081
vt 0.774641 0.959612
vt 0.812137 0.959612
vt 0.807022 0.885243
vt 0.780272 0.884883
vt 0.671437 0.814837
vt 0.726381 0.675087
vt 0.622500 0.754820
vt 0.737145 0.531902
vt 0.849636 0.531902
vt 0.849636 0.454464
vt 0.737145 0.454463
vt 0.859365 0.939637
vt 0.774643 0.316493
vt 0.812140 0.316494
vt 0.496447 0.780531
vt 0.443008 0.799054
vt 0.495671 0.922591
vt 0.530624 0.910393
vt 0.599510 0.786755
vt 0.599050 0.945738
vt 0.558342 0.982317
vt 0.520905 0.995528
vt 0.601474 0.723183
vt 0.498404 0.724333
vt 0.935364 0.666242
vt 0.919518 0.273662
vt 0.905005 0.274045
vt 0.909899 0.666914
vt 0.890488 0.274024
vt 0.884425 0.666876
vt 0.875976 0.273597
vt 0.858963 0.666128
vt 0.986188 0.662769
vt 0.948483 0.271683
vt 0.934014 0.272874
vt 0.960800 0.664860
vt 0.923638 0.259741
vt 0.571407 0.641673
vt 0.522754 0.641673
vt 0.522754 0.662268
vt 0.571407 0.662268
vt 0.522754 0.682863
vt 0.571407 0.682863
vt 0.571407 0.579888
vt 0.522754 0.579888
vt 0.522754 0.600483
vt 0.571407 0.600483
vt 0.522754 0.621078
vt 0.571407 0.621078
vt 0.503167 0.594118
vt 0.503167 0.627442
vt 0.637659 0.606463
vt 0.617625 0.606479
vt 0.617700 0.639718
vt 0.637659 0.639703
vt 0.665551 0.593193
vt 0.665551 0.652972
vt 0.638411 0.670581
vt 0.618387 0.670581
vt 0.589933 0.653129
vt 0.589665 0.593351
vt 0.618387 0.575584
vt 0.638412 0.575585
vt 0.305396 0.904318
vt 0.285672 0.904443
vt 0.285553 0.937682
vt 0.305396 0.937557
vt 0.333288 0.891048
vt 0.333287 0.950827
vt 0.306148 0.968436
vt 0.286123 0.968435
vt 0.257748 0.950876
vt 0.258177 0.891099
vt 0.286123 0.873439
vt 0.306148 0.873439
vt 0.076319 0.518079
vt 0.076316 0.584587
vt 0.129386 0.584665
vt 0.129041 0.488732
vt 0.015593 0.490903
vt 0.015593 0.614764
vt 0.043175 0.643737
vt 0.121544 0.646871
vt 0.184677 0.614680
vt 0.184012 0.461657
vt 0.104770 0.432622
vt 0.030404 0.470642
vt 0.365639 0.865661
vt 0.461830 0.991649
vt 0.729673 0.939913
vt 0.491061 0.610780
vt 0.900156 0.260361
vt 0.911672 0.251521
vt 0.864942 0.096798
vt 0.941950 0.096798
vt 0.941950 0.014058
vt 0.864942 0.014058
vt 0.990113 0.135401
vt 0.959358 0.135401
vt 0.959358 0.154512
vt 0.990113 0.154512
vt 0.959358 0.173623
vt 0.990113 0.173623
vt 0.959358 0.192735
vt 0.990113 0.192735
vt 0.990113 0.020734
vt 0.959358 0.020734
vt 0.959358 0.039846
vt 0.990113 0.039846
vt 0.959358 0.058957
vt 0.990113 0.058957
vt 0.959358 0.078068
vt 0.990113 0.078068
vt 0.959358 0.097179
vt 0.990113 0.097179
vt 0.959358 0.116290
vt 0.990113 0.116290
vn 0.000000 0.000002 -1.000000
vn 0.000000 0.000002 -1.000000
vn 0.000000 0.000002 -1.000000
vn 0.000000 0.000002 -1.000000
vn 0.000000 0.000002 -1.000000
vn 0.000000 0.000002 -1.000000
vn 0.000000 -0.996183 -0.087292
vn 0.000000 -0.996183 -0.087292
vn 0.000000 -0.996183 -0.087292
vn 0.000000 -0.996183 -0.087292
vn 0.000000 -0.996183 -0.087292
vn 0.000000 -0.996183 -0.087292
vn 0.996691 0.000000 -0.081287
vn 0.996691 0.000000 -0.081287
vn 0.996691 0.000000 -0.081287
vn 0.996691 0.000000 -0.081287
vn 0.996691 0.000000 -0.081287
vn 0.996691 0.000000 -0.081287
vn 0.000000 0.996183 -0.087292
vn 0.000000 0.996183 -0.087292
vn 0.000000 0.996183 -0.087292
vn 0.000000 0.996183 -0.087292
vn 0.000000 0.996183 -0.087292
vn 0.000000 0.996183 -0.087292
vn -0.996691 0.000000 -0.081287
vn -0.996691 0.000000 -0.081287
vn -0.996691 0.000000 -0.081287
vn -0.996691 0.000000 -0.081287
vn -0.996691 0.000000 -0.081287
vn -0.996691 0.000000 -0.081287
vn 0.000000 0.000001 -1.000000
vn 0.000000 0.000001 -1.000000
vn 0.000000 0.000001 -1.000000
vn 0.000000 0.000001 -1.000000
vn 0.000000 0.000001 -1.000000
vn 0.000000 0.000001 -1.000000
vn 0.000000 -0.991774 -0.128003
vn 0.000000 -0.991774 -0.128003
vn 0.000000 -0.991774 -0.128003
vn 0.000000 -0.991774 -0.128003
vn 0.000000 -0.991774 -0.128003
vn 0.000000 -0.991774 -0.128003
vn 0.989805 0.000000 -0.142433
vn 0.989805 0.000000 -0.142433
vn 0.989805 0.000000 -0.142433
vn 0.989805 0.000000 -0.142433
vn 0.989805 0.000000 -0.142433
vn 0.989805 0.000000 -0.142433
vn 0.000000 0.991774 -0.128003
vn 0.000000 0.991774 -0.128003
vn 0.000000 0.991774 -0.128003
vn 0.000000 0.991774 -0.128003
vn 0.000000 0.991774 -0.128003
vn 0.000000 0.991774 -0.128003
vn -0.999567 0.000000 -0.029414
vn -0.999567 0.000000 -0.029413
vn -0.999567 0.000000 -0.029414
vn -0.999567 0.000000 -0.029413
vn -0.999567 0.000000 -0.029413
vn -0.999567 0.000000 -0.029413
vn 0.000000 0.000000 1.000000
vn 0.000000 0.000000 1.000000
vn 0.000000 0.000000 1.000000
vn 0.000000 0.000000 1.000000
vn 0.000000 0.000000 1.000000
vn 0.000000 0.000000 1.000000
vn 0.233804 -0.966354 -0.107215
vn 0.233804 -0.966354 -0.107215
vn 0.233804 -0.966354 -0.107215
vn 0.308334 -0.933307 -0.184034
vn 0.308334 -0.933307 -0.184035
vn 0.308334 -0.933307 -0.184034
vn 0.517777 0.000001 -0.855516
vn 0.517777 0.000001 -0.855516
vn 0.517777 0.000001 -0.855516
vn 0.517778 0.000000 -0.855515
vn 0.517777 0.000000 -0.855515
vn 0.517778 0.000000 -0.855515
vn -0.245754 0.000000 0.969332
vn -0.245754 0.000000 0.969332
vn -0.245754 0.000000 0.969332
vn -0.245754 0.000000 0.969332
vn -0.245754 0.000000 0.969332
vn -0.245754 0.000000 0.969332
vn -0.942214 0.000747 -0.335012
vn -0.942214 0.000747 -0.335012
vn -0.942214 0.000747 -0.335012
vn -0.941991 -0.001125 -0.335637
vn -0.941991 -0.001125 -0.335637
vn -0.941991 -0.001125 -0.335637
vn -0.026210 -0.995627 -0.089665
vn -0.026210 -0.995627 -0.089665
vn -0.026210 -0.995627 -0.089665
vn -0.057389 -0.995486 -0.075590
vn -0.057389 -0.995486 -0.075590
vn -0.057389 -0.995486 -0.075590
vn -0.379502 -0.001371 -0.925190
vn -0.379502 -0.001371 -0.925190
vn -0.379502 -0.001371 -0.925190
vn -0.378250 0.001290 -0.925703
vn -0.378250 0.001290 -0.925703
vn -0.378250 0.001290 -0.925703
vn -0.024126 -0.000759 0.999709
vn -0.024126 -0.000759 0.999709
vn -0.024126 -0.000759 0.999709
vn -0.024967 0.000671 0.999688
vn -0.024967 0.000671 0.999688
vn -0.024967 0.000671 0.999688
vn -0.019192 0.808868 0.587677
vn -0.019192 0.808868 0.587677
vn -0.019192 0.808868 0.587677
vn -0.019192 0.808868 0.587678
vn -0.019192 0.808868 0.587678
vn -0.019192 0.808868 0.587678
vn -0.019192 -0.308961 0.950881
vn -0.019192 -0.308961 0.950881
vn -0.019192 -0.308961 0.950881
vn -0.019192 -0.308962 0.950881
vn -0.019192 -0.308962 0.950881
vn -0.019192 -0.308962 0.950881
vn -0.019192 -0.999816 0.000000
vn -0.019192 -0.999816 0.000000
vn -0.019192 -0.999816 0.000000
vn -0.019192 -0.999816 0.000000
vn -0.019192 -0.999816 0.000000
vn -0.019192 -0.999816 0.000000
vn -0.019192 -0.308962 -0.950881
vn -0.019192 -0.308962 -0.950881
vn -0.019192 -0.308962 -0.950881
vn -0.019192 -0.308959 -0.950882
vn -0.019192 -0.308959 -0.950882
vn -0.019192 -0.308959 -0.950882
vn -0.019192 0.808869 -0.587675
vn -0.019192 0.808869 -0.587675
vn -0.019192 0.808869 -0.587675
vn -0.019192 0.808868 -0.587677
vn -0.019192 0.808868 -0.587677
vn -0.019192 0.808868 -0.587677
vn -1.000000 0.000000 0.000000
vn -1.000000 0.000000 0.000000
vn -1.000000 0.000000 0.000000
vn 0.809017 0.587785 0.000000
vn 0.809017 0.587785 0.000000
vn 0.809017 0.587785 0.000000
vn 0.809016 0.587786 0.000001
vn 0.809016 0.587786 0.000001
vn 0.809016 0.587786 0.000001
vn -0.309018 0.951056 0.000002
vn -0.309018 0.951056 0.000002
vn -0.309018 0.951056 0.000002
vn -0.309016 0.951057 0.000001
vn -0.309016 0.951057 0.000001
vn -0.309016 0.951057 0.000001
vn -1.000000 -0.000001 0.000000
vn -1.000000 -0.000001 0.000000
vn -1.000000 -0.000001 0.000000
vn -1.000000 -0.000001 0.000000
vn -1.000000 -0.000001 0.000000
vn -1.000000 -0.000001 0.000000
vn -0.309017 -0.951056 -0.000002
vn -0.309017 -0.951056 -0.000002
vn -0.309017 -0.951056 -0.000002
vn -0.309017 -0.951056 -0.000001
vn -0.309017 -0.951056 -0.000001
vn -0.309017 -0.951056 -0.000001
vn 0.809017 -0.587786 0.000000
vn 0.809017 -0.587786 0.000000
vn 0.809017 -0.587786 0.000000
vn 0.809017 -0.587785 -0.000001
vn 0.809017 -0.587785 -0.000001
vn 0.809017 -0.587785 -0.000001
vn 0.000000 0.000000 -1.000000
vn 0.000000 0.000000 -1.000000
vn 0.000000 0.000000 -1.000000
vn 0.000000 0.000000 -1.000000
vn 0.000000 0.000000 -1.000000
vn 0.000000 0.000000 -1.000000
vn 0.000000 0.996953 -0.078000
vn 0.000000 0.996953 -0.078000
vn 0.000000 0.996953 -0.078000
vn 0.000000 0.996953 -0.078005
vn 0.000000 0.996953 -0.078005
vn 0.000000 0.996953 -0.078005
vn 0.000000 -0.051095 -0.998694
vn 0.000000 -0.051095 -0.998694
vn 0.000000 -0.051095 -0.998694
vn 0.000000 -0.051095 -0.998694
vn 0.000000 -0.051095 -0.998694
vn 0.000000 -0.051095 -0.998694
vn 0.902952 0.428432 -0.033521
vn 0.902952 0.428432 -0.033521
vn 0.902952 0.428432 -0.033521
vn 0.902952 0.428433 -0.033522
vn 0.902952 0.428433 -0.033522
vn 0.902952 0.428433 -0.033522
vn 0.000000 0.051092 0.998694
vn 0.000000 0.051092 0.998694
vn 0.000000 0.051092 0.998694
vn 0.000000 0.051092 0.998694
vn 0.000000 0.051092 0.998694
vn 0.000000 0.051092 0.998694
vn -0.902952 0.428433 -0.033521
vn -0.902952 0.428433 -0.033521
vn -0.902952 0.428433 -0.033521
vn -0.902952 0.428432 -0.033522
vn -0.902952 0.428432 -0.033522
vn -0.902952 0.428432 -0.033522
vn 0.000000 0.996953 -0.078005
vn 0.000000 0.996953 -0.078005
vn 0.000000 0.996953 -0.078005
vn 0.000000 0.996953 -0.078005
vn 0.000000 0.996953 -0.078005
vn 0.000000 0.996953 -0.078005
vn 0.000000 -0.051095 -0.998694
vn 0.000000 -0.051095 -0.998694
vn 0.000000 -0.051095 -0.998694
vn 0.000000 -0.051095 -0.998694
vn 0.000000 -0.051095 -0.998694
vn 0.000000 -0.051095 -0.998694
vn 0.902952 0.428433 -0.033522
vn 0.902952 0.428433 -0.033522
vn 0.902952 0.428433 -0.033522
vn 0.902952 0.428433 -0.033522
vn 0.902952 0.428433 -0.033522
vn 0.902952 0.428433 -0.033522
vn 0.000000 0.051092 0.998694
vn 0.000000 0.051092 0.998694
vn 0.000000 0.051092 0.998694
vn 0.000000 0.051092 0.998694
vn 0.000000 0.051092 0.998694
vn 0.000000 0.051092 0.998694
vn -0.902952 0.428433 -0.033522
vn -0.902952 0.428433 -0.033522
vn -0.902952 0.428433 -0.033522
vn -0.902952 0.428433 -0.033522
vn -0.902952 0.428433 -0.033522
vn -0.902952 0.428433 -0.033522
vn 0.000000 -0.990111 -0.140286
vn 0.000000 -0.990111 -0.140286
vn 0.000000 -0.990111 -0.140286
vn 0.000000 -0.990111 -0.140285
vn 0.000000 -0.990111 -0.140285
vn 0.000000 -0.990111 -0.140285
vn 0.000000 -0.422668 -0.906285
vn 0.000000 -0.422668 -0.906285
vn 0.000000 -0.422668 -0.906285
vn 0.000000 -0.422668 -0.906285
vn 0.000000 -0.422668 -0.906285
vn 0.000000 -0.422668 -0.906285
vn 0.866374 -0.497152 -0.047287
vn 0.866374 -0.497152 -0.047287
vn 0.866374 -0.497152 -0.047287
vn 0.874789 -0.479712 -0.067969
vn 0.874789 -0.479713 -0.067969
vn 0.874789 -0.479712 -0.067969
vn 0.000000 0.000000 1.000000
vn 0.000000 0.000000 1.000000
vn 0.000000 0.000000 1.000000
vn 0.000000 0.000000 1.000000
vn 0.000000 0.000000 1.000000
vn 0.000000 0.000000 1.000000
vn -0.840516 -0.410978 -0.353030
vn -0.840516 -0.410978 -0.353030
vn -0.840516 -0.410978 -0.353030
vn -0.691540 -0.554200 -0.463287
vn -0.691540 -0.554200 -0.463287
vn -0.691540 -0.554200 -0.463287
vn -0.040363 0.995708 -0.083291
vn -0.040363 0.995708 -0.083291
vn -0.040363 0.995708 -0.083291
vn -0.040363 0.995708 -0.083291
vn -0.040363 0.995708 -0.083291
vn -0.040363 0.995708 -0.083291
vn 0.273163 0.945294 -0.178330
vn 0.273163 0.945294 -0.178330
vn 0.273163 0.945294 -0.178330
vn 0.295031 0.948582 -0.114672
vn 0.295031 0.948582 -0.114672
vn 0.295031 0.948582 -0.114672
vn 0.000000 0.000000 -1.000000
vn 0.000000 0.000000 -1.000000
vn 0.000000 0.000000 -1.000000
vn -1.000000 -0.000006 0.000000
vn -1.000000 -0.000006 0.000000
vn -1.000000 -0.000006 0.000000
vn -1.000000 0.000009 0.000000
vn -1.000000 0.000009 0.000000
vn -1.000000 0.000009 0.000000
vn 0.000000 0.000000 1.000000
vn 0.000000 0.000000 1.000000
vn 0.000000 0.000000 1.000000
vn 0.000000 0.000000 1.000000
vn 0.000000 0.000000 1.000000
vn 0.000000 0.000000 1.000000
vn -0.939693 0.342020 0.000000
vn -0.939693 0.342020 0.000000
vn -0.939693 0.342020 0.000000
vn -0.939693 0.342019 0.000000
vn -0.939693 0.342019 0.000000
vn -0.939693 0.342019 0.000000
vn -0.500000 0.866026 0.000000
vn -0.500000 0.866026 0.000000
vn -0.500000 0.866026 0.000000
vn -0.500000 0.866026 0.000000
vn -0.500000 0.866026 0.000000
vn -0.500000 0.866025 0.000000
vn 0.173648 0.984808 0.000000
vn 0.173648 0.984808 0.000000
vn 0.173648 0.984808 0.000000
vn 0.173648 0.984808 0.000000
vn 0.173648 0.984808 0.000000
vn 0.173648 0.984808 0.000000
vn 0.766044 0.642788 0.000000
vn 0.766044 0.642788 0.000000
vn 0.766044 0.642788 0.000000
vn 0.766044 0.642788 0.000000
vn 0.766044 0.642788 0.000000
vn 0.766044 0.642788 0.000000
vn 1.000000 0.000000 0.000000
vn 1.000000 0.000000 0.000000
vn 1.000000 0.000000 0.000000
vn 1.000000 0.000000 0.000000
vn 1.000000 0.000000 0.000000
vn 1.000000 0.000000 0.000000
vn 0.766044 -0.642788 0.000000
vn 0.766044 -0.642788 0.000000
vn 0.766044 -0.642788 0.000000
vn 0.766044 -0.642788 0.000000
vn 0.766044 -0.642788 0.000000
vn 0.766044 -0.642788 0.000000
vn 0.173649 -0.984808 0.000000
vn 0.173649 -0.984808 0.000000
vn 0.173649 -0.984808 0.000000
vn 0.173648 -0.984808 0.000000
vn 0.173648 -0.984808 0.000000
vn 0.173648 -0.984808 0.000000
vn -0.500001 -0.866025 -0.000002
vn -0.500001 -0.866025 -0.000002
vn -0.500001 -0.866025 -0.000002
vn -0.500000 -0.866026 0.000000
vn -0.500000 -0.866026 0.000000
vn -0.500000 -0.866026 0.000000
vn -0.939693 -0.342020 0.000000
vn -0.939693 -0.342020 0.000000
vn -0.939693 -0.342020 0.000000
vn -0.939693 -0.342020 0.000000
vn -0.939693 -0.342020 0.000000
vn -0.939693 -0.342020 0.000000
s off
g MortarRight:sci_fi_turret_4
usemtl MortarRight:lambert3SG
f 1/1/1 4/2/2 3/3/3
f 3/3/4 2/4/5 1/1/6
f 5/5/7 1/1/8 2/4/9
f 2/4/10 6/6/11 5/5/12
f 6/6/13 2/4/14 3/7/15
f 3/7/16 7/8/17 6/6/18
f 7/8/19 3/7/20 4/9/21
f 4/9/22 8/10/23 7/8/24
f 8/11/25 4/12/26 1/1/27
f 1/1/28 5/5/29 8/11/30
f 10/13/31 9/14/32 12/15/33
f 12/15/34 11/16/35 10/13/36
f 13/17/37 9/18/38 10/13/39
f 10/13/40 14/19/41 13/17/42
f 16/20/43 15/21/44 18/22/45
f 18/22/46 17/23/47 16/20/48
f 19/24/49 11/16/50 12/25/51
f 12/25/52 20/26/53 19/24/54
f 20/27/55 12/15/56 9/14/57
f 9/14/58 13/28/59 20/27/60
f 20/27/61 13/28/62 14/29/63
f 14/29/64 19/30/65 20/27/66
f 10/13/67 18/22/68 15/31/69
f 15/31/70 14/19/71 10/13/72
f 18/22/73 10/13/74 11/16/75
f 11/16/76 17/23/77 18/22/78
f 16/32/79 19/30/80 14/29/81
f 14/29/82 15/33/83 16/32/84
f 21/34/85 24/35/86 23/36/87
f 23/36/88 22/37/89 21/34/90
f 25/38/91 21/34/92 22/37/93
f 22/37/94 26/39/95 25/38/96
f 26/40/97 22/37/98 23/36/99
f 23/36/100 27/41/101 26/40/102
f 28/42/103 24/43/104 21/34/105
f 21/34/106 25/38/107 28/42/108
f 29/44/109 32/45/110 31/46/111
f 31/46/112 30/47/113 29/44/114
f 30/47/115 31/46/116 34/48/117
f 34/48/118 33/49/119 30/47/120
f 33/49/121 34/48/122 36/50/123
f 36/50/124 35/51/125 33/49/126
f 35/52/127 36/53/128 38/54/129
f 38/54/130 37/55/131 35/52/132
f 37/55/133 38/54/134 32/45/135
f 32/45/136 29/44/137 37/55/138
f 32/45/139 38/56/140 31/46/141
f 39/57/142 42/58/143 41/59/144
f 41/59/145 40/60/146 39/57/147
f 40/60/148 41/59/149 44/61/150
f 44/61/151 43/62/152 40/60/153
f 43/63/154 44/64/155 46/65/156
f 46/65/157 45/66/158 43/63/159
f 45/66/160 46/65/161 48/67/162
f 48/67/163 47/68/164 45/66/165
f 47/68/166 48/67/167 42/58/168
f 42/58/169 39/57/170 47/68/171
f 44/69/172 42/70/173 48/67/174
f 48/67/175 46/65/176 44/69/177
f 49/71/178 52/72/179 51/73/180
f 51/73/181 50/74/182 49/71/183
f 53/75/184 49/71/185 50/74/186
f 50/74/187 54/76/188 53/75/189
f 54/77/190 50/74/191 51/73/192
f 51/73/193 55/78/194 54/77/195
f 55/79/196 51/73/197 52/72/198
f 52/72/199 56/80/200 55/79/201
f 56/81/202 52/72/203 49/71/204
f 49/71/205 53/82/206 56/81/207
f 57/83/208 60/84/209 59/85/210
f 59/85/211 58/86/212 57/83/213
f 61/87/214 57/83/215 58/86/216
f 58/86/217 62/88/218 61/87/219
f 62/89/220 58/86/221 59/85/222
f 59/85/223 63/90/224 62/89/225
f 63/91/226 59/85/227 60/84/228
f 60/84/229 64/92/230 63/91/231
f 64/93/232 60/84/233 57/83/234
f 57/83/235 61/94/236 64/93/237
f 65/95/238 68/96/239 67/97/240
f 67/97/241 66/98/242 65/95/243
f 65/95/244 70/99/245 69/100/246
f 69/100/247 68/96/248 65/95/249
f 68/96/250 69/101/251 71/102/252
f 71/102/253 67/97/254 68/96/255
f 67/97/256 71/103/257 72/104/258
f 72/104/259 66/98/260 67/97/261
f 66/98/262 72/105/263 70/106/264
f 70/106/265 65/95/266 66/98/267
f 28/107/268 27/108/269 23/36/270
f 23/36/271 24/35/272 28/107/273
f 17/23/274 11/16/275 19/24/276
f 19/24/277 16/109/278 17/23/279
f 42/70/280 44/69/281 41/110/282
f 34/111/283 31/46/284 38/56/285
f 38/56/286 36/112/287 34/111/288
f 7/113/289 8/114/290 5/115/291
f 5/115/292 6/116/293 7/113/294
f 73/117/295 76/118/296 75/119/297
f 75/119/298 74/120/299 73/117/300
f 74/120/301 75/119/302 78/121/303
f 78/121/304 77/122/305 74/120/306
f 77/122/307 78/121/308 80/123/309
f 80/123/310 79/124/311 77/122/312
f 79/125/313 80/126/314 82/127/315
f 82/127/316 81/128/317 79/125/318
f 81/128/319 82/127/320 84/129/321
f 84/129/322 83/130/323 81/128/324
f 83/130/325 84/129/326 86/131/327
f 86/131/328 85/132/329 83/130/330
f 85/132/331 86/131/332 88/133/333
f 88/133/334 87/134/335 85/132/336
f 87/134/337 88/133/338 90/135/339
f 90/135/340 89/136/341 87/134/342
f 89/136/343 90/135/344 76/118/345
f 76/118/346 73/117/347 89/136/348
